# xmcd CD database file
#
# Track frame offsets:
#	183
#	9598
#	32023
#	43268
#	57065
#	66570
#	87375
#	98690
#	111455
#	120683
#	131235
#	146133
#	156523
#	169153
#	179833
#	191035
#	202670
#	213428
#	222510
#	234373
#	246358
#	258100
#	268695
#	281765
#	293958
#
# Disc length: 4170 seconds
#
# Revision: 6
# Processed by: cddbd v1.5.2PL0 Copyright (c) Steve Scherf et al.
# Submitted via: CDex 1.51
#
DISCID=92104819
DTITLE=Various Artist - MEGA ~ JUKE  BOX   [Vol.2, CD 3-4]
DYEAR=1994
DGENRE=Rock
TTITLE0=Swinging Blue Jeans - Hippy Hippy Shake
TTITLE1=Mary Hopkin - Those Were The Days
TTITLE2=Louis Prima - Angelina
TTITLE3=Gary Puckett and The Union Gap - Young Girl
TTITLE4=Tommy Roe - Sheila
TTITLE5=Fats Domino - Jambalaya
TTITLE6=Gene Pitney - It Hurts To Be In Love
TTITLE7=Martha Reeves and The Vandellas - Jimmy Mack
TTITLE8=Ritchie Valens - La Bamba
TTITLE9=The Crystals - Da Doo Ron Ron
TTITLE10=Bobby Womack - Love, The Time Is Now
TTITLE11=The Fortunes - Don't Throw Your Love Away
TTITLE12=Christie - Yellow River
TTITLE13=Phil Phillips - The Sea Of Love
TTITLE14=Frankie Laine - Answer Me
TTITLE15=Johnny Preston - Running Bear
TTITLE16=The Exciters - Tell Him
TTITLE17=The Dixie Cups - Ko Ko
TTITLE18=Chris Andrews - Pretty Belinda
TTITLE19=Sam Cooke - Everybody Love To Cha-Cha-Cha
TTITLE20=Joe Jones - You Talk Too Much
TTITLE21=The Coasters - Charlie Brown
TTITLE22=The Turtles - Happy Together
TTITLE23=Nancy Sinatra - These Boots Are Made For Walking
TTITLE24=Ray Charles - I Can't Stop Lovin' You
EXTD=YEAR: 1994
EXTT0=
EXTT1=
EXTT2=
EXTT3=
EXTT4=
EXTT5=
EXTT6=
EXTT7=
EXTT8=
EXTT9=
EXTT10=
EXTT11=
EXTT12=
EXTT13=
EXTT14=
EXTT15=
EXTT16=
EXTT17=
EXTT18=
EXTT19=
EXTT20=
EXTT21=
EXTT22=
EXTT23=
EXTT24=
PLAYORDER=
